<?xml version="1.0" encoding="UTF-8" standalone="no"?>
<!-- Created with Inkscape (http://www.inkscape.org/) -->

<svg
   xmlns:dc="http://purl.org/dc/elements/1.1/"
   xmlns:cc="http://creativecommons.org/ns#"
   xmlns:rdf="http://www.w3.org/1999/02/22-rdf-syntax-ns#"
   xmlns:svg="http://www.w3.org/2000/svg"
   xmlns="http://www.w3.org/2000/svg"
   xmlns:sodipodi="http://sodipodi.sourceforge.net/DTD/sodipodi-0.dtd"
   xmlns:inkscape="http://www.inkscape.org/namespaces/inkscape"
   id="svg3336"
   version="1.1"
   inkscape:version="0.91 r13725"
   xml:space="preserve"
   width="999.90002"
   height="999.90002"
   viewBox="0 0 999.90002 999.90002"
   sodipodi:docname="movil_20.svg"><metadata
     id="metadata3342"><rdf:RDF><cc:Work
         rdf:about=""><dc:format>image/svg+xml</dc:format><dc:type
           rdf:resource="http://purl.org/dc/dcmitype/StillImage" /><dc:title></dc:title></cc:Work></rdf:RDF></metadata><defs
     id="defs3340"><clipPath
       clipPathUnits="userSpaceOnUse"
       id="clipPath3352"><path
         d="m 0,799.92 799.92,0 L 799.92,0 0,0 0,799.92 Z"
         id="path3354"
         inkscape:connector-curvature="0" /></clipPath></defs><sodipodi:namedview
     pagecolor="#ffffff"
     bordercolor="#666666"
     borderopacity="1"
     objecttolerance="10"
     gridtolerance="10"
     guidetolerance="10"
     inkscape:pageopacity="0"
     inkscape:pageshadow="2"
     inkscape:window-width="1536"
     inkscape:window-height="801"
     id="namedview3338"
     showgrid="false"
     inkscape:zoom="0.63406339"
     inkscape:cx="267.32343"
     inkscape:cy="511.27099"
     inkscape:window-x="-8"
     inkscape:window-y="-8"
     inkscape:window-maximized="1"
     inkscape:current-layer="g3348" /><g
     id="g3344"
     inkscape:groupmode="layer"
     inkscape:label="movil_20"
     transform="matrix(1.25,0,0,-1.25,0,999.9)"><g
       id="g3348"><g
         id="g3350"
         clip-path="url(#clipPath3352)"><g
           id="g3356"
           transform="translate(283.5371,27.8916)"><path
             d="m 0,0 c 0,-0.628 0.097,-1.163 0.293,-1.606 0.196,-0.443 0.465,-0.775 0.803,-0.998 0.34,-0.227 0.712,-0.339 1.115,-0.339 l 0.008,0 0,-1.73 C 1.99,-4.715 1.75,-4.735 1.498,-4.735 c -0.557,0 -1.072,0.116 -1.544,0.35 -0.474,0.235 -0.885,0.572 -1.23,1.01 -0.347,0.432 -0.61,0.949 -0.788,1.54 -0.181,0.589 -0.269,1.228 -0.269,1.915 0,1.45 0.355,2.581 1.064,3.394 0.709,0.809 1.643,1.215 2.8,1.215 0.243,0 0.472,-0.015 0.688,-0.045 l 0,-1.674 -0.025,0 C 1.769,2.97 1.388,2.852 1.053,2.611 0.721,2.37 0.461,2.021 0.277,1.57 0.091,1.123 0,0.596 0,0 m 2.219,-2.943 c 0.405,0.002 0.775,0.109 1.11,0.32 0.339,0.212 0.608,0.538 0.811,0.978 C 4.339,-1.202 4.438,-0.655 4.438,0 4.438,0.622 4.339,1.153 4.14,1.596 3.937,2.043 3.665,2.387 3.322,2.617 2.984,2.851 2.618,2.966 2.219,2.97 l 0,1.674 C 2.596,4.59 2.931,4.49 3.225,4.346 3.685,4.116 4.131,3.761 4.567,3.286 l 0,3.429 c 0,0.477 0.096,0.836 0.287,1.081 0.189,0.248 0.46,0.365 0.81,0.365 0.353,0 0.625,-0.112 0.813,-0.339 C 6.67,7.601 6.765,7.271 6.765,6.835 l 0,-10.244 c 0,-0.444 -0.103,-0.776 -0.306,-0.995 -0.206,-0.222 -0.471,-0.331 -0.795,-0.331 -0.317,0 -0.579,0.11 -0.785,0.341 -0.208,0.228 -0.312,0.559 -0.312,0.985 l 0,0.23 C 4.256,-3.539 3.948,-3.826 3.645,-4.051 3.341,-4.276 3.014,-4.445 2.657,-4.563 2.517,-4.609 2.371,-4.646 2.219,-4.673 l 0,1.73 z"
             style="fill:#ffffff;fill-opacity:1;fill-rule:evenodd;stroke:none"
             id="path3358"
             inkscape:connector-curvature="0" /></g><g
           id="g3360"
           transform="translate(294.5732,28.625)"><path
             d="m 0,0 2.104,0 0,-1.319 -2.104,0 C 0.004,-1.847 0.11,-2.31 0.317,-2.712 0.524,-3.118 0.799,-3.42 1.145,-3.621 1.438,-3.801 1.758,-3.899 2.104,-3.923 l 0,-1.542 c -1.375,0.044 -2.455,0.469 -3.238,1.273 -0.828,0.849 -1.242,2.003 -1.242,3.459 0,0.688 0.102,1.326 0.306,1.913 0.205,0.585 0.504,1.091 0.894,1.51 0.392,0.417 0.872,0.739 1.447,0.965 0.552,0.216 1.164,0.326 1.833,0.334 l 0,-1.616 -0.005,0 C 1.521,2.373 1.044,2.177 0.676,1.777 0.304,1.376 0.077,0.784 0,0 m 2.104,-5.465 0,1.542 C 2.162,-3.928 2.22,-3.93 2.279,-3.93 c 0.277,0 0.531,0.032 0.762,0.096 0.229,0.063 0.448,0.17 0.666,0.31 0.217,0.137 0.415,0.286 0.597,0.445 0.181,0.158 0.415,0.374 0.705,0.644 0.12,0.104 0.29,0.158 0.51,0.158 0.238,0 0.43,-0.069 0.579,-0.199 0.147,-0.128 0.221,-0.315 0.221,-0.551 0,-0.211 -0.082,-0.453 -0.246,-0.738 C 5.908,-4.045 5.661,-4.315 5.327,-4.573 4.998,-4.832 4.581,-5.042 4.077,-5.218 3.575,-5.385 2.999,-5.469 2.345,-5.469 c -0.081,0 -0.161,0.001 -0.241,0.004 M 2.104,0 4.209,0 C 4.154,0.794 3.94,1.389 3.566,1.781 3.196,2.175 2.708,2.372 2.104,2.373 l 0,1.616 0.073,0 C 3.085,3.989 3.863,3.802 4.509,3.414 5.162,3.033 5.647,2.539 5.972,1.932 6.296,1.326 6.455,0.705 6.455,0.076 6.455,-0.505 6.287,-0.889 5.953,-1.061 5.617,-1.233 5.149,-1.319 4.541,-1.319 l -2.437,0 0,1.319 z"
             style="fill:#ffffff;fill-opacity:1;fill-rule:evenodd;stroke:none"
             id="path3362"
             inkscape:connector-curvature="0" /></g><g
           id="g3364"
           transform="translate(310.4639,26.1904)"><path
             d="m 0,0 c 0,-0.638 -0.156,-1.187 -0.467,-1.643 -0.314,-0.459 -0.774,-0.806 -1.383,-1.041 -0.608,-0.234 -1.352,-0.35 -2.224,-0.35 -0.834,0 -1.55,0.126 -2.145,0.381 -0.598,0.254 -1.034,0.578 -1.32,0.956 -0.282,0.384 -0.425,0.768 -0.425,1.154 0,0.256 0.09,0.474 0.273,0.654 0.182,0.183 0.41,0.275 0.69,0.275 0.242,0 0.43,-0.062 0.562,-0.182 0.129,-0.115 0.254,-0.284 0.375,-0.498 0.236,-0.416 0.521,-0.725 0.852,-0.926 0.334,-0.207 0.786,-0.307 1.359,-0.307 0.464,0 0.845,0.103 1.145,0.307 0.296,0.208 0.445,0.443 0.445,0.709 0,0.41 -0.156,0.709 -0.463,0.897 -0.309,0.185 -0.818,0.367 -1.529,0.535 -0.798,0.199 -1.45,0.403 -1.951,0.625 -0.501,0.219 -0.901,0.505 -1.203,0.862 -0.3,0.361 -0.451,0.796 -0.451,1.32 0,0.463 0.137,0.905 0.417,1.323 0.276,0.411 0.687,0.738 1.228,0.986 0.543,0.248 1.197,0.37 1.96,0.37 0.603,0 1.142,-0.06 1.621,-0.184 0.48,-0.126 0.879,-0.293 1.201,-0.506 0.321,-0.208 0.563,-0.44 0.73,-0.696 0.168,-0.255 0.252,-0.504 0.252,-0.749 0,-0.265 -0.089,-0.485 -0.268,-0.653 C -0.896,3.452 -1.152,3.363 -1.48,3.363 -1.719,3.363 -1.922,3.431 -2.089,3.564 -2.255,3.7 -2.448,3.905 -2.663,4.179 -2.838,4.405 -3.045,4.59 -3.283,4.726 -3.523,4.86 -3.846,4.931 -4.255,4.931 -4.674,4.931 -5.022,4.835 -5.3,4.656 -5.578,4.481 -5.718,4.258 -5.718,3.995 -5.718,3.747 -5.615,3.549 -5.41,3.394 -5.205,3.235 -4.933,3.105 -4.585,3.003 -4.24,2.902 -3.763,2.778 -3.157,2.63 -2.436,2.453 -1.847,2.247 -1.39,2.002 -0.933,1.757 -0.588,1.471 -0.353,1.137 -0.116,0.806 0,0.426 0,0"
             style="fill:#ffffff;fill-opacity:1;fill-rule:evenodd;stroke:none"
             id="path3366"
             inkscape:connector-curvature="0" /></g><g
           id="g3368"
           transform="translate(313.604,33.6777)"><path
             d="m 0,0 c -0.325,0 -0.6,0.104 -0.828,0.298 -0.232,0.199 -0.345,0.48 -0.345,0.843 0,0.329 0.117,0.601 0.353,0.813 0.234,0.215 0.507,0.319 0.82,0.319 0.299,0 0.566,-0.094 0.799,-0.286 C 1.031,1.79 1.147,1.51 1.147,1.141 1.147,0.784 1.034,0.505 0.809,0.301 0.582,0.104 0.312,0 0,0 m 1.147,-2.396 0,-6.715 c 0,-0.466 -0.11,-0.816 -0.331,-1.055 -0.219,-0.239 -0.501,-0.355 -0.841,-0.355 -0.341,0 -0.618,0.119 -0.83,0.364 -0.214,0.244 -0.318,0.594 -0.318,1.046 l 0,6.644 c 0,0.458 0.104,0.809 0.318,1.036 0.212,0.235 0.489,0.351 0.83,0.351 0.34,0 0.621,-0.116 0.841,-0.351 0.221,-0.227 0.331,-0.551 0.331,-0.965"
             style="fill:#ffffff;fill-opacity:1;fill-rule:evenodd;stroke:none"
             id="path3370"
             inkscape:connector-curvature="0" /></g><g
           id="g3372"
           transform="translate(321.1978,21.3281)"><path
             d="m 0,0 0,-1.617 -0.157,-0.001 c -0.799,0 -1.516,0.111 -2.145,0.336 -0.629,0.223 -1.115,0.514 -1.456,0.867 -0.338,0.356 -0.507,0.717 -0.507,1.095 0,0.285 0.095,0.511 0.288,0.688 0.192,0.184 0.423,0.273 0.696,0.273 0.341,0 0.639,-0.151 0.895,-0.451 0.124,-0.152 0.251,-0.31 0.386,-0.464 0.134,-0.154 0.281,-0.288 0.443,-0.402 0.161,-0.11 0.356,-0.192 0.582,-0.244 0.226,-0.054 0.488,-0.083 0.783,-0.083 0.065,0 0.129,0.001 0.192,0.003 m -2.234,6.622 c 0,-0.938 0.205,-1.652 0.617,-2.134 0.411,-0.478 0.943,-0.721 1.596,-0.721 L 0,3.767 0,2.1 C -0.226,2.06 -0.465,2.039 -0.72,2.039 c -0.776,0 -1.455,0.199 -2.038,0.599 -0.581,0.393 -1.027,0.95 -1.338,1.667 -0.314,0.715 -0.469,1.539 -0.469,2.477 0,0.693 0.096,1.323 0.285,1.884 0.191,0.563 0.46,1.037 0.811,1.424 0.353,0.388 0.759,0.675 1.219,0.872 0.458,0.191 0.963,0.291 1.514,0.291 0.258,0 0.504,-0.02 0.736,-0.059 l 0,-1.661 -0.039,0 c -0.663,0 -1.197,-0.249 -1.595,-0.756 -0.4,-0.504 -0.6,-1.219 -0.6,-2.155 M 0,3.767 C 0.378,3.771 0.736,3.874 1.071,4.075 1.415,4.287 1.694,4.596 1.909,5.014 2.127,5.43 2.234,5.936 2.234,6.53 2.234,7.479 2.025,8.216 1.607,8.743 1.199,9.263 0.662,9.523 0,9.533 l 0,1.661 C 0.357,11.135 0.683,11.028 0.974,10.876 1.456,10.625 1.902,10.227 2.32,9.689 l 0,0.315 c 0,0.4 0.097,0.713 0.298,0.933 0.196,0.223 0.452,0.333 0.761,0.333 0.45,0 0.747,-0.15 0.895,-0.439 0.147,-0.289 0.221,-0.708 0.221,-1.263 l 0,-6.747 C 4.495,2.053 4.415,1.387 4.248,0.831 4.085,0.273 3.822,-0.183 3.458,-0.548 3.096,-0.908 2.621,-1.183 2.034,-1.356 1.479,-1.519 0.802,-1.606 0,-1.617 L 0,0 C 0.508,0.017 0.911,0.098 1.208,0.248 1.54,0.414 1.771,0.648 1.907,0.949 2.041,1.253 2.113,1.574 2.138,1.913 2.16,2.257 2.18,2.809 2.192,3.569 1.833,3.074 1.42,2.69 0.95,2.431 0.667,2.272 0.35,2.162 0,2.1 l 0,1.667 z"
             style="fill:#ffffff;fill-opacity:1;fill-rule:evenodd;stroke:none"
             id="path3374"
             inkscape:connector-curvature="0" /></g><g
           id="g3376"
           transform="translate(330.1533,31.3154)"><path
             d="m 0,0 0,-0.284 c 0.407,0.542 0.854,0.938 1.34,1.186 0.482,0.253 1.041,0.38 1.67,0.38 0.613,0 1.161,-0.133 1.643,-0.396 0.48,-0.268 0.841,-0.647 1.08,-1.134 0.152,-0.284 0.251,-0.592 0.296,-0.917 0.047,-0.332 0.07,-0.75 0.07,-1.259 l 0,-4.325 C 6.099,-7.215 5.993,-7.564 5.781,-7.804 5.567,-8.043 5.29,-8.159 4.95,-8.159 4.604,-8.159 4.324,-8.04 4.108,-7.795 3.894,-7.551 3.785,-7.2 3.785,-6.749 l 0,3.871 c 0,0.763 -0.105,1.353 -0.319,1.76 -0.212,0.403 -0.637,0.606 -1.273,0.606 -0.414,0 -0.791,-0.126 -1.131,-0.37 C 0.721,-1.124 0.472,-1.465 0.313,-1.896 0.201,-2.247 0.143,-2.895 0.143,-3.838 l 0,-2.911 c 0,-0.468 -0.11,-0.825 -0.328,-1.06 -0.218,-0.234 -0.501,-0.35 -0.846,-0.35 -0.334,0 -0.61,0.119 -0.825,0.364 -0.216,0.244 -0.323,0.595 -0.323,1.046 l 0,6.716 c 0,0.442 0.096,0.771 0.29,0.989 0.193,0.217 0.455,0.326 0.79,0.326 0.203,0 0.389,-0.046 0.553,-0.142 C -0.383,1.042 -0.25,0.898 -0.151,0.704 -0.05,0.513 0,0.277 0,0"
             style="fill:#ffffff;fill-opacity:1;fill-rule:evenodd;stroke:none"
             id="path3378"
             inkscape:connector-curvature="0" /></g><g
           id="g3380"
           transform="translate(340.5063,28.625)"><path
             d="m 0,0 2.106,0 0,-1.319 -2.106,0 C 0.005,-1.847 0.11,-2.31 0.317,-2.712 0.525,-3.118 0.801,-3.42 1.142,-3.621 1.438,-3.801 1.759,-3.899 2.106,-3.923 l 0,-1.542 c -1.376,0.044 -2.454,0.469 -3.24,1.273 -0.825,0.849 -1.241,2.003 -1.241,3.459 0,0.688 0.105,1.326 0.307,1.913 0.203,0.585 0.502,1.091 0.895,1.51 0.391,0.417 0.87,0.739 1.444,0.965 0.555,0.216 1.163,0.326 1.835,0.334 l 0,-1.616 -0.006,0 C 1.523,2.373 1.046,2.177 0.675,1.777 0.306,1.376 0.08,0.784 0,0 m 2.106,-5.465 0,1.542 C 2.164,-3.928 2.221,-3.93 2.28,-3.93 c 0.278,0 0.531,0.032 0.761,0.096 0.23,0.063 0.451,0.17 0.669,0.31 0.216,0.137 0.414,0.286 0.595,0.445 0.182,0.158 0.417,0.374 0.705,0.644 0.121,0.104 0.291,0.158 0.51,0.158 0.24,0 0.431,-0.069 0.579,-0.199 C 6.246,-2.604 6.322,-2.791 6.322,-3.027 6.322,-3.238 6.24,-3.48 6.073,-3.765 5.91,-4.045 5.661,-4.315 5.329,-4.573 5,-4.832 4.583,-5.042 4.079,-5.218 c -0.5,-0.167 -1.08,-0.251 -1.731,-0.251 -0.082,0 -0.162,0.001 -0.242,0.004 M 2.106,0 4.212,0 C 4.154,0.794 3.939,1.389 3.568,1.781 3.199,2.175 2.71,2.372 2.106,2.373 l 0,1.616 0.073,0 C 3.085,3.989 3.864,3.802 4.513,3.414 5.162,3.033 5.649,2.539 5.973,1.932 6.295,1.326 6.457,0.705 6.457,0.076 6.457,-0.505 6.289,-0.889 5.956,-1.061 5.621,-1.233 5.152,-1.319 4.542,-1.319 l -2.436,0 0,1.319 z"
             style="fill:#ffffff;fill-opacity:1;fill-rule:evenodd;stroke:none"
             id="path3382"
             inkscape:connector-curvature="0" /></g><g
           id="g3384"
           transform="translate(350.7163,27.8916)"><path
             d="M 0,0 C 0,-0.628 0.098,-1.163 0.294,-1.606 0.49,-2.049 0.757,-2.381 1.097,-2.604 1.438,-2.831 1.809,-2.943 2.21,-2.943 l 0.011,0 0,-1.73 C 1.992,-4.715 1.75,-4.735 1.497,-4.735 c -0.556,0 -1.072,0.116 -1.545,0.35 -0.473,0.235 -0.883,0.572 -1.229,1.01 -0.347,0.432 -0.608,0.949 -0.787,1.54 -0.179,0.589 -0.269,1.228 -0.269,1.915 0,1.45 0.353,2.581 1.064,3.394 0.71,0.809 1.643,1.215 2.801,1.215 0.243,0 0.473,-0.015 0.689,-0.045 l 0,-1.674 -0.029,0 C 1.769,2.97 1.389,2.852 1.054,2.611 0.718,2.37 0.46,2.021 0.275,1.57 0.091,1.123 0,0.596 0,0 m 2.221,-2.943 c 0.405,0.002 0.774,0.11 1.11,0.32 0.335,0.212 0.606,0.538 0.808,0.978 C 4.34,-1.202 4.442,-0.655 4.442,0 4.442,0.622 4.34,1.153 4.139,1.596 3.937,2.043 3.666,2.387 3.321,2.617 2.988,2.85 2.62,2.965 2.221,2.97 l 0,1.674 C 2.599,4.59 2.932,4.49 3.222,4.346 3.682,4.116 4.129,3.761 4.568,3.286 l 0,3.429 c 0,0.477 0.095,0.836 0.285,1.081 0.19,0.248 0.46,0.365 0.814,0.365 0.351,0 0.62,-0.112 0.811,-0.339 C 6.667,7.601 6.763,7.271 6.763,6.835 l 0,-10.244 c 0,-0.444 -0.101,-0.776 -0.306,-0.995 -0.204,-0.222 -0.47,-0.331 -0.79,-0.331 -0.319,0 -0.581,0.11 -0.789,0.341 -0.207,0.228 -0.31,0.559 -0.31,0.985 l 0,0.23 C 4.254,-3.539 3.949,-3.826 3.643,-4.051 3.34,-4.276 3.011,-4.445 2.659,-4.563 2.518,-4.609 2.372,-4.646 2.221,-4.673 l 0,1.73 z"
             style="fill:#ffffff;fill-opacity:1;fill-rule:evenodd;stroke:none"
             id="path3386"
             inkscape:connector-curvature="0" /></g><g
           id="g3388"
           transform="translate(366.4224,27.8262)"><path
             d="M 0,0 C 0,-0.926 0.21,-1.636 0.632,-2.132 1.04,-2.609 1.568,-2.858 2.22,-2.877 l 0,-1.741 c -0.118,0.019 -0.233,0.044 -0.345,0.074 -0.313,0.085 -0.583,0.198 -0.803,0.339 -0.221,0.137 -0.41,0.278 -0.569,0.428 -0.153,0.146 -0.36,0.368 -0.613,0.664 l 0,-0.231 c 0,-0.437 -0.104,-0.767 -0.317,-0.995 -0.208,-0.222 -0.475,-0.331 -0.8,-0.331 -0.327,0 -0.59,0.109 -0.787,0.331 -0.195,0.228 -0.294,0.558 -0.294,0.995 l 10e-4,10.145 c 0,0.465 0.096,0.822 0.285,1.063 0.192,0.245 0.455,0.363 0.795,0.363 0.358,0 0.633,-0.114 0.827,-0.347 0.192,-0.231 0.29,-0.556 0.29,-0.98 l 0,-3.548 c 0.436,0.455 0.881,0.801 1.334,1.04 0.29,0.155 0.621,0.259 0.996,0.315 l 0,-1.673 C 1.808,3.021 1.441,2.903 1.115,2.677 0.769,2.436 0.494,2.087 0.296,1.628 0.097,1.169 0,0.63 0,0 m 2.22,-2.877 0.076,-0.001 c 0.583,0 1.087,0.257 1.51,0.763 0.424,0.509 0.633,1.235 0.633,2.18 0,0.618 -0.086,1.14 -0.262,1.586 C 4.001,2.092 3.751,2.436 3.427,2.677 3.106,2.917 2.727,3.035 2.296,3.035 L 2.22,3.034 l 0,1.673 C 2.435,4.739 2.665,4.755 2.91,4.755 3.68,4.755 4.356,4.57 4.938,4.207 5.52,3.843 5.971,3.313 6.29,2.613 6.612,1.924 6.771,1.097 6.771,0.146 6.771,-0.563 6.682,-1.206 6.503,-1.791 6.325,-2.377 6.064,-2.889 5.724,-3.318 5.384,-3.748 4.972,-4.085 4.487,-4.319 4.002,-4.554 3.468,-4.67 2.884,-4.67 c -0.231,0 -0.452,0.017 -0.664,0.052 l 0,1.741 z"
             style="fill:#ffffff;fill-opacity:1;fill-rule:evenodd;stroke:none"
             id="path3390"
             inkscape:connector-curvature="0" /></g><g
           id="g3392"
           transform="translate(376.9717,22.8652)"><path
             d="m 0,0 0.213,0.519 -2.86,7.198 c -0.175,0.416 -0.265,0.717 -0.265,0.899 0,0.197 0.053,0.389 0.156,0.558 0.101,0.171 0.241,0.305 0.42,0.405 0.178,0.104 0.364,0.153 0.557,0.153 0.336,0 0.587,-0.105 0.757,-0.317 C -0.852,9.202 -0.699,8.897 -0.57,8.5 L 1.396,2.782 3.257,8.101 c 0.148,0.432 0.284,0.766 0.4,1.011 0.119,0.244 0.247,0.409 0.381,0.492 0.132,0.087 0.32,0.128 0.565,0.128 0.175,0 0.344,-0.045 0.505,-0.142 C 5.272,9.499 5.395,9.372 5.481,9.214 5.57,9.055 5.614,8.888 5.614,8.713 5.594,8.609 5.554,8.453 5.506,8.256 5.454,8.054 5.39,7.849 5.316,7.647 L 2.288,-0.278 C 2.027,-0.981 1.773,-1.523 1.521,-1.919 c -0.247,-0.4 -0.577,-0.704 -0.99,-0.916 -0.412,-0.215 -0.966,-0.32 -1.662,-0.32 -0.681,0 -1.191,0.075 -1.532,0.22 -0.34,0.147 -0.51,0.415 -0.51,0.807 0,0.268 0.08,0.472 0.241,0.618 0.162,0.15 0.401,0.218 0.721,0.218 0.122,0 0.246,-0.018 0.365,-0.052 0.148,-0.033 0.275,-0.049 0.384,-0.049 0.266,0 0.475,0.039 0.627,0.12 0.155,0.074 0.293,0.214 0.414,0.411 C -0.3,-0.668 -0.158,-0.38 0,0"
             style="fill:#ffffff;fill-opacity:1;fill-rule:evenodd;stroke:none"
             id="path3394"
             inkscape:connector-curvature="0" /></g><g
           id="g3396"
           transform="translate(419.9521,32.3945)"><path
             d="m 0,0 0.555,0 0,0.698 c 0,0.728 0.092,1.304 0.278,1.729 0.18,0.429 0.494,0.742 0.935,0.937 0.44,0.198 1.041,0.294 1.811,0.294 1.351,0 2.032,-0.332 2.032,-0.995 C 5.611,2.45 5.537,2.266 5.396,2.109 5.254,1.957 5.089,1.878 4.893,1.878 4.802,1.878 4.646,1.895 4.425,1.932 4.205,1.965 4.02,1.981 3.864,1.981 3.443,1.981 3.175,1.858 3.058,1.613 2.938,1.364 2.876,1.012 2.876,0.556 L 2.876,0 3.447,0 c 0.886,0 1.329,-0.269 1.329,-0.8 0,-0.378 -0.118,-0.621 -0.352,-0.721 -0.237,-0.103 -0.561,-0.16 -0.977,-0.16 l -0.571,0 0,-6.147 c 0,-0.458 -0.111,-0.809 -0.325,-1.053 -0.218,-0.241 -0.501,-0.357 -0.85,-0.357 -0.326,0 -0.601,0.116 -0.819,0.357 -0.218,0.244 -0.327,0.595 -0.327,1.053 l 0,6.147 -0.639,0 c -0.346,0 -0.61,0.082 -0.8,0.243 -0.186,0.154 -0.282,0.355 -0.282,0.604 C -1.166,-0.277 -0.774,0 0,0"
             style="fill:#ffffff;fill-opacity:1;fill-rule:evenodd;stroke:none"
             id="path3398"
             inkscape:connector-curvature="0" /></g><g
           id="g3400"
           transform="translate(428.25,26.5088)"><path
             d="m 0,0 0,-1.942 c 0,-0.468 -0.109,-0.826 -0.331,-1.06 -0.222,-0.234 -0.5,-0.351 -0.845,-0.351 -0.329,0 -0.607,0.117 -0.822,0.356 -0.216,0.239 -0.325,0.589 -0.325,1.055 l 0,6.464 c 0,1.048 0.376,1.567 1.129,1.567 0.386,0 0.665,-0.122 0.837,-0.364 C -0.186,5.483 -0.094,5.12 -0.077,4.644 0.201,5.12 0.487,5.483 0.778,5.725 1.07,5.967 1.461,6.089 1.949,6.089 2.436,6.089 2.91,5.967 3.369,5.725 3.831,5.483 4.058,5.157 4.058,4.757 4.058,4.469 3.963,4.238 3.765,4.052 3.566,3.869 3.36,3.777 3.129,3.777 3.046,3.777 2.841,3.829 2.515,3.931 2.188,4.04 1.901,4.092 1.648,4.092 1.311,4.092 1.031,4 0.817,3.819 0.602,3.644 0.434,3.379 0.313,3.027 0.196,2.676 0.114,2.256 0.067,1.771 0.021,1.287 0,0.695 0,0"
             style="fill:#ffffff;fill-opacity:1;fill-rule:evenodd;stroke:none"
             id="path3402"
             inkscape:connector-curvature="0" /></g><g
           id="g3404"
           transform="translate(435.082,28.625)"><path
             d="m 0,0 2.105,0 0,-1.319 -2.105,0 C 0.009,-1.847 0.111,-2.31 0.318,-2.712 0.525,-3.118 0.797,-3.42 1.146,-3.621 1.439,-3.8 1.759,-3.898 2.105,-3.923 l 0,-1.542 c -1.376,0.044 -2.457,0.469 -3.235,1.273 -0.83,0.849 -1.245,2.003 -1.245,3.459 0,0.688 0.102,1.326 0.308,1.913 0.204,0.585 0.502,1.091 0.891,1.51 0.391,0.417 0.875,0.739 1.449,0.965 0.55,0.216 1.162,0.326 1.832,0.333 l 0,-1.615 -0.004,0 C 1.523,2.373 1.047,2.177 0.673,1.777 0.304,1.376 0.079,0.784 0,0 m 2.105,-5.465 0,1.542 C 2.163,-3.927 2.222,-3.93 2.28,-3.93 c 0.279,0 0.532,0.032 0.762,0.096 0.228,0.063 0.453,0.17 0.665,0.31 0.218,0.137 0.417,0.286 0.6,0.445 0.179,0.158 0.418,0.374 0.702,0.644 0.121,0.104 0.295,0.158 0.513,0.158 0.237,0 0.43,-0.069 0.577,-0.199 0.147,-0.128 0.22,-0.315 0.22,-0.551 C 6.319,-3.238 6.24,-3.48 6.074,-3.765 5.907,-4.045 5.661,-4.315 5.333,-4.573 5,-4.832 4.582,-5.042 4.079,-5.218 3.576,-5.385 3.001,-5.469 2.348,-5.469 c -0.082,0 -0.162,0.001 -0.243,0.004 M 2.105,0 4.212,0 C 4.151,0.794 3.94,1.389 3.57,1.781 3.199,2.176 2.709,2.372 2.105,2.373 l 0,1.615 0.075,10e-4 C 3.086,3.989 3.861,3.802 4.51,3.414 5.161,3.033 5.648,2.539 5.972,1.932 6.294,1.326 6.458,0.705 6.458,0.076 6.458,-0.505 6.291,-0.889 5.955,-1.061 5.62,-1.233 5.152,-1.319 4.542,-1.319 l -2.437,0 0,1.319 z"
             style="fill:#ffffff;fill-opacity:1;fill-rule:evenodd;stroke:none"
             id="path3406"
             inkscape:connector-curvature="0" /></g><g
           id="g3408"
           transform="translate(445.4365,28.625)"><path
             d="m 0,0 2.104,0 0,-1.319 -2.104,0 C 0.006,-1.847 0.113,-2.31 0.318,-2.712 0.525,-3.118 0.801,-3.42 1.144,-3.621 1.439,-3.8 1.759,-3.898 2.104,-3.923 l 0,-1.542 c -1.374,0.044 -2.453,0.469 -3.236,1.273 -0.829,0.849 -1.241,2.003 -1.241,3.459 0,0.688 0.103,1.326 0.301,1.913 0.209,0.585 0.506,1.091 0.897,1.51 0.388,0.417 0.871,0.739 1.448,0.965 0.554,0.216 1.165,0.326 1.831,0.334 l 0,-1.616 -0.004,0 C 1.521,2.373 1.047,2.177 0.675,1.777 0.306,1.376 0.075,0.784 0,0 m 2.104,-5.465 0,1.542 C 2.162,-3.927 2.22,-3.93 2.278,-3.93 c 0.279,0 0.531,0.032 0.76,0.096 0.233,0.063 0.456,0.17 0.668,0.31 0.218,0.137 0.417,0.286 0.599,0.445 0.182,0.158 0.42,0.374 0.708,0.644 0.119,0.104 0.282,0.158 0.507,0.158 0.241,0 0.433,-0.069 0.581,-0.199 0.144,-0.128 0.218,-0.315 0.218,-0.551 0,-0.211 -0.08,-0.453 -0.243,-0.738 C 5.91,-4.045 5.659,-4.315 5.328,-4.573 4.997,-4.832 4.58,-5.042 4.08,-5.218 3.574,-5.385 2.999,-5.469 2.347,-5.469 c -0.081,0 -0.162,0.001 -0.243,0.004 M 2.104,0 4.209,0 C 4.149,0.794 3.938,1.389 3.57,1.781 3.197,2.175 2.713,2.372 2.104,2.373 l 0,1.616 0.071,0 C 3.086,3.989 3.864,3.802 4.513,3.414 5.16,3.033 5.65,2.539 5.974,1.932 6.297,1.326 6.457,0.705 6.457,0.076 6.457,-0.505 6.287,-0.889 5.953,-1.061 5.622,-1.233 5.152,-1.319 4.542,-1.319 l -2.438,0 0,1.319 z"
             style="fill:#ffffff;fill-opacity:1;fill-rule:evenodd;stroke:none"
             id="path3410"
             inkscape:connector-curvature="0" /></g><g
           id="g3412"
           transform="translate(458.0928,30.8604)"><path
             d="m 0,0 c -0.611,-0.016 -1.133,-0.266 -1.558,-0.755 -0.44,-0.504 -0.662,-1.247 -0.662,-2.23 0,-0.922 0.219,-1.64 0.658,-2.155 0.42,-0.499 0.941,-0.755 1.562,-0.771 l 0,-1.748 c -0.394,0.058 -0.74,0.178 -1.038,0.354 -0.454,0.266 -0.882,0.654 -1.292,1.174 l 0,-3.488 c 0,-1.023 -0.373,-1.531 -1.11,-1.531 -0.44,0 -0.727,0.131 -0.872,0.395 -0.141,0.263 -0.209,0.651 -0.209,1.154 l 0,10.023 c 0,0.442 0.097,0.771 0.286,0.989 0.194,0.217 0.457,0.326 0.795,0.326 0.327,0 0.594,-0.109 0.8,-0.334 0.208,-0.224 0.31,-0.548 0.31,-0.965 l 0,-0.281 c 0.442,0.537 0.892,0.936 1.365,1.187 C -0.669,1.502 -0.347,1.61 0,1.669 L 0,0 Z m 2.22,-2.941 c 0,0.614 -0.089,1.137 -0.279,1.578 -0.188,0.44 -0.444,0.781 -0.777,1.011 -0.33,0.239 -0.698,0.353 -1.101,0.353 L 0,0 0,1.669 C 0.202,1.703 0.413,1.721 0.632,1.721 1.347,1.721 2.003,1.536 2.606,1.169 3.209,0.798 3.684,0.261 4.033,-0.448 4.379,-1.155 4.554,-1.993 4.554,-2.969 4.554,-3.682 4.451,-4.336 4.252,-4.937 4.051,-5.532 3.776,-6.039 3.423,-6.441 3.071,-6.845 2.657,-7.162 2.18,-7.38 1.699,-7.598 1.181,-7.704 0.632,-7.704 0.409,-7.704 0.199,-7.689 0,-7.659 l 0,1.748 0.063,-0.001 c 0.387,0 0.744,0.112 1.072,0.34 0.329,0.222 0.593,0.554 0.79,1.006 0.195,0.448 0.295,0.99 0.295,1.625"
             style="fill:#ffffff;fill-opacity:1;fill-rule:evenodd;stroke:none"
             id="path3414"
             inkscape:connector-curvature="0" /></g><g
           id="g3416"
           transform="translate(465.6885,33.6777)"><path
             d="m 0,0 c -0.327,0 -0.608,0.104 -0.834,0.298 -0.227,0.199 -0.343,0.48 -0.343,0.843 0,0.329 0.118,0.601 0.353,0.813 C -0.591,2.169 -0.315,2.273 0,2.273 0.296,2.273 0.564,2.179 0.798,1.987 1.029,1.79 1.146,1.51 1.146,1.141 1.146,0.784 1.031,0.505 0.805,0.301 0.579,0.104 0.308,0 0,0 m 1.146,-2.396 0,-6.715 c 0,-0.466 -0.114,-0.816 -0.334,-1.055 -0.22,-0.239 -0.499,-0.355 -0.842,-0.355 -0.34,0 -0.614,0.119 -0.829,0.364 -0.214,0.244 -0.318,0.594 -0.318,1.046 l 0,6.644 c 0,0.458 0.104,0.809 0.318,1.036 0.215,0.235 0.489,0.351 0.829,0.351 0.343,0 0.622,-0.116 0.842,-0.351 0.22,-0.227 0.334,-0.551 0.334,-0.965"
             style="fill:#ffffff;fill-opacity:1;fill-rule:evenodd;stroke:none"
             id="path3418"
             inkscape:connector-curvature="0" /></g><g
           id="g3420"
           transform="translate(475.0195,24.2197)"><path
             d="m 0,0 -2.054,3.368 -1.26,-1.193 0,-1.847 c 0,-0.447 -0.114,-0.79 -0.346,-1.034 -0.241,-0.241 -0.512,-0.357 -0.813,-0.357 -0.36,0 -0.641,0.116 -0.844,0.355 -0.206,0.239 -0.307,0.589 -0.307,1.055 l 0,9.903 c 0,0.518 0.094,0.91 0.294,1.178 0.203,0.271 0.485,0.405 0.857,0.405 0.356,0 0.637,-0.117 0.849,-0.365 0.208,-0.245 0.31,-0.604 0.31,-1.081 l 0,-5.634 2.615,2.743 C -0.374,7.834 -0.13,8.067 0.037,8.193 0.211,8.317 0.418,8.378 0.66,8.378 0.952,8.378 1.189,8.289 1.388,8.102 1.575,7.917 1.676,7.688 1.676,7.409 1.676,7.069 1.36,6.613 0.729,6.046 L -0.501,4.918 1.878,1.172 C 2.059,0.895 2.184,0.682 2.257,0.54 2.336,0.396 2.371,0.256 2.371,0.129 2.371,-0.244 2.273,-0.532 2.068,-0.747 1.868,-0.957 1.6,-1.063 1.276,-1.063 0.99,-1.063 0.771,-0.989 0.619,-0.836 0.468,-0.683 0.26,-0.402 0,0"
             style="fill:#ffffff;fill-opacity:1;fill-rule:evenodd;stroke:none"
             id="path3422"
             inkscape:connector-curvature="0" /></g><g
           id="g3424"
           transform="translate(480.7598,23.1563)"><path
             d="m 0,0 c -0.35,0 -0.652,0.11 -0.906,0.341 -0.257,0.224 -0.389,0.542 -0.389,0.955 0,0.342 0.125,0.641 0.367,0.891 0.247,0.248 0.55,0.371 0.905,0.371 0.357,0 0.659,-0.123 0.914,-0.368 C 1.142,1.944 1.269,1.646 1.269,1.296 1.27,0.889 1.142,0.569 0.891,0.342 0.636,0.11 0.342,0 0,0"
             style="fill:#ffffff;fill-opacity:1;fill-rule:evenodd;stroke:none"
             id="path3426"
             inkscape:connector-curvature="0" /></g><g
           id="g3428"
           transform="translate(493.0068,26.0313)"><path
             d="m 0,0 c 0,-0.291 -0.09,-0.599 -0.264,-0.928 -0.172,-0.331 -0.434,-0.641 -0.787,-0.942 -0.353,-0.297 -0.803,-0.536 -1.339,-0.715 -0.541,-0.184 -1.15,-0.273 -1.824,-0.273 -1.436,0 -2.555,0.419 -3.36,1.255 -0.804,0.833 -1.21,1.957 -1.21,3.361 0,0.959 0.186,1.8 0.555,2.532 0.366,0.73 0.903,1.295 1.602,1.692 0.695,0.403 1.529,0.601 2.498,0.601 0.601,0 1.15,-0.086 1.654,-0.262 0.505,-0.177 0.927,-0.399 1.278,-0.683 0.347,-0.275 0.615,-0.572 0.801,-0.886 0.183,-0.317 0.274,-0.61 0.274,-0.882 0,-0.28 -0.104,-0.516 -0.313,-0.708 -0.205,-0.191 -0.456,-0.286 -0.75,-0.286 -0.195,0 -0.357,0.049 -0.483,0.147 -0.125,0.098 -0.27,0.257 -0.427,0.482 -0.285,0.429 -0.58,0.754 -0.889,0.97 -0.308,0.214 -0.703,0.32 -1.177,0.32 -0.687,0 -1.239,-0.266 -1.659,-0.803 -0.418,-0.536 -0.633,-1.265 -0.633,-2.197 0,-0.437 0.053,-0.84 0.164,-1.206 0.106,-0.363 0.263,-0.675 0.469,-0.937 0.198,-0.254 0.451,-0.452 0.738,-0.583 0.289,-0.135 0.61,-0.203 0.953,-0.203 0.461,0 0.863,0.112 1.195,0.324 0.333,0.218 0.625,0.542 0.882,0.989 0.142,0.261 0.297,0.465 0.461,0.611 0.162,0.148 0.362,0.22 0.6,0.22 0.289,0 0.52,-0.108 0.708,-0.322 C -0.098,0.471 -0.001,0.241 0,0"
             style="fill:#ffffff;fill-opacity:1;fill-rule:evenodd;stroke:none"
             id="path3430"
             inkscape:connector-curvature="0" /></g><g
           id="g3432"
           transform="translate(499.1016,30.8809)"><path
             d="m 0,0 -0.018,0 c -0.45,0 -0.85,-0.117 -1.198,-0.352 -0.342,-0.239 -0.61,-0.585 -0.801,-1.042 -0.183,-0.461 -0.278,-1 -0.278,-1.612 0,-0.607 0.092,-1.136 0.278,-1.59 0.184,-0.453 0.447,-0.799 0.788,-1.041 0.345,-0.24 0.75,-0.359 1.211,-0.359 l 0.018,0 0,-1.729 -0.018,0 c -0.697,0 -1.332,0.111 -1.895,0.341 -0.559,0.225 -1.044,0.548 -1.46,0.972 -0.408,0.424 -0.722,0.923 -0.93,1.497 -0.216,0.576 -0.323,1.213 -0.323,1.909 0,0.705 0.107,1.348 0.329,1.935 0.211,0.582 0.522,1.082 0.92,1.496 0.404,0.413 0.893,0.733 1.464,0.958 0.576,0.224 1.206,0.334 1.895,0.334 L 0,1.717 0,0 Z m 2.294,-3.006 c 0,0.949 -0.213,1.686 -0.629,2.213 C 1.253,-0.269 0.701,-0.004 0,0 L 0,1.717 C 0.702,1.715 1.332,1.599 1.901,1.38 2.473,1.152 2.964,0.831 3.372,0.408 c 0.411,-0.422 0.72,-0.92 0.93,-1.499 0.216,-0.579 0.32,-1.216 0.32,-1.915 0,-0.688 -0.104,-1.328 -0.321,-1.909 C 4.083,-5.504 3.77,-6.004 3.362,-6.422 2.954,-6.842 2.47,-7.166 1.901,-7.394 1.337,-7.613 0.702,-7.724 0,-7.725 l 0,1.729 c 0.701,0.005 1.253,0.267 1.665,0.795 0.416,0.53 0.629,1.263 0.629,2.195"
             style="fill:#ffffff;fill-opacity:1;fill-rule:evenodd;stroke:none"
             id="path3434"
             inkscape:connector-curvature="0" /></g><g
           id="g3436"
           transform="translate(513.2803,27.7061)"><path
             d="m 0,0 0,-3.086 c 0,-0.488 -0.111,-0.855 -0.334,-1.1 -0.218,-0.245 -0.512,-0.364 -0.877,-0.364 -0.35,0 -0.636,0.119 -0.853,0.364 -0.219,0.245 -0.33,0.612 -0.33,1.1 l 0,3.7 c 0,0.587 -0.02,1.032 -0.058,1.36 C -2.492,2.299 -2.6,2.563 -2.776,2.77 -2.95,2.978 -3.229,3.077 -3.61,3.077 -4.368,3.077 -4.869,2.819 -5.107,2.299 -5.349,1.776 -5.469,1.028 -5.469,0.052 l 0,-3.138 c 0,-0.484 -0.113,-0.846 -0.334,-1.094 -0.213,-0.247 -0.503,-0.37 -0.86,-0.37 -0.35,0 -0.637,0.123 -0.864,0.37 -0.225,0.248 -0.337,0.61 -0.337,1.094 l 10e-4,6.646 c 0,0.433 0.101,0.767 0.301,0.995 0.204,0.22 0.469,0.337 0.795,0.337 0.319,0 0.586,-0.106 0.796,-0.318 0.215,-0.213 0.32,-0.509 0.32,-0.882 l 0,-0.22 c 0.405,0.48 0.835,0.836 1.294,1.065 0.461,0.222 0.97,0.338 1.53,0.338 0.587,0 1.088,-0.116 1.505,-0.348 0.421,-0.233 0.77,-0.585 1.04,-1.055 0.39,0.474 0.812,0.83 1.26,1.059 0.446,0.228 0.944,0.344 1.49,0.344 0.634,0 1.181,-0.126 1.638,-0.371 C 4.567,4.247 4.908,3.894 5.134,3.432 5.338,3.008 5.435,2.348 5.435,1.446 l 0,-4.532 c 0,-0.488 -0.115,-0.855 -0.334,-1.1 C 4.885,-4.431 4.594,-4.55 4.226,-4.55 c -0.348,0 -0.639,0.123 -0.861,0.37 -0.227,0.248 -0.338,0.61 -0.338,1.094 l 0,3.904 C 3.027,1.313 3.008,1.716 2.966,2.021 2.919,2.317 2.808,2.572 2.619,2.773 2.433,2.978 2.147,3.077 1.768,3.077 1.461,3.077 1.174,2.987 0.897,2.807 0.624,2.628 0.408,2.382 0.253,2.075 0.083,1.685 0,0.995 0,0"
             style="fill:#ffffff;fill-opacity:1;fill-rule:evenodd;stroke:none"
             id="path3438"
             inkscape:connector-curvature="0" /></g><g
           id="g3440"
           transform="translate(401.6514,38.5859)"><path
             d="m 0,0 c -0.047,0.151 -0.097,0.298 -0.145,0.446 0.779,0.072 1.304,1.008 0.922,1.7 -0.185,0.415 -0.611,0.637 -1.04,0.646 l -0.05,0 C -0.674,2.786 -1.03,2.628 -1.238,2.307 -1.735,1.676 -1.349,0.674 -0.586,0.469 c 0.046,-0.156 0.091,-0.318 0.14,-0.482 -1.171,-0.076 -2.364,-0.338 -3.345,-1.006 0.101,-0.277 0.203,-0.564 0.302,-0.853 1.98,0.87 4.2,0.683 6.288,0.474 0.068,0.274 0.138,0.551 0.209,0.827 C 2.063,-0.146 1.027,0.009 0,0"
             style="fill:#ffffff;fill-opacity:1;fill-rule:evenodd;stroke:none"
             id="path3442"
             inkscape:connector-curvature="0" /></g><g
           id="g3444"
           transform="translate(413.4238,35.3926)"><path
             d="m 0,0 c -0.312,-0.161 -0.373,-0.538 -0.353,-0.853 -0.35,-0.339 -0.184,-0.849 -0.221,-1.274 -0.079,-0.237 -0.364,-0.266 -0.564,-0.353 -0.272,0.414 -0.562,0.815 -0.93,1.156 l 0.004,0.019 c -0.401,0.374 -0.832,0.715 -1.288,1.011 -0.364,-0.394 -0.749,-0.778 -1.099,-1.186 0.695,-0.767 1.34,-1.589 1.909,-2.455 0.394,-0.661 0.708,-1.362 0.979,-2.079 0.589,0.301 1.17,0.616 1.761,0.928 -0.311,0.715 -0.665,1.418 -1.045,2.107 0.263,0.138 0.612,0.274 0.652,0.615 0.031,0.377 -0.054,0.783 0.172,1.113 C 0.432,-1.549 1.123,-1.215 1.13,-0.66 1.19,-0.088 0.47,0.321 0,0"
             style="fill:#ffffff;fill-opacity:1;fill-rule:evenodd;stroke:none"
             id="path3446"
             inkscape:connector-curvature="0" /></g><g
           id="g3448"
           transform="translate(397.501,35.7998)"><path
             d="m 0,0 0,-2.107 c -0.535,0.002 -1.068,-0.122 -1.541,-0.377 -0.982,-0.524 -1.673,-1.567 -1.72,-2.686 -0.065,-0.896 0.291,-1.787 0.89,-2.447 0.599,-0.661 1.485,-1.01 2.371,-1.011 l 0,-2.845 c -2.075,0.108 -4.121,0.557 -6.134,1.06 -0.369,1.864 -0.379,3.883 0.439,5.635 0.848,1.95 2.522,3.459 4.45,4.308 C -0.837,-0.293 -0.422,-0.137 0,0 m 9.281,-6.877 -0.008,0 c -0.565,-0.046 -1.11,0.222 -1.495,0.621 -0.276,0.343 -0.504,0.737 -0.541,1.187 -0.133,0.971 0.552,1.975 1.502,2.203 0.179,0.053 0.361,0.07 0.542,0.066 l 0,2.218 C 8.105,0.238 6.703,0.757 5.263,0.75 3.487,0.771 1.692,0.547 0,0 L 0,-2.107 C 0.313,-2.108 0.626,-2.152 0.928,-2.236 1.27,-2.323 1.584,-2.481 1.877,-2.68 2.481,-3.105 2.935,-3.737 3.137,-4.452 3.418,-5.37 3.239,-6.398 2.705,-7.19 2.319,-7.75 1.768,-8.182 1.135,-8.427 0.772,-8.562 0.386,-8.628 0,-8.628 l 0,-2.845 0.09,-0.004 c 2.077,-0.063 4.17,-0.115 6.232,0.177 0.997,0.13 1.987,0.326 2.959,0.588 l 0,3.835 z m 2.027,1.707 c -0.14,-0.956 -1.05,-1.766 -2.027,-1.707 l 0,-3.835 c 1.793,0.483 3.527,1.19 5.129,2.13 0,0 -0.338,1.867 -1.668,3.903 -0.766,1.273 -1.597,2.537 -2.725,3.519 -0.234,0.205 -0.48,0.398 -0.736,0.578 l 0,-2.218 c 0.246,-0.005 0.492,-0.052 0.73,-0.108 0.895,-0.318 1.481,-1.329 1.297,-2.262"
             style="fill:#ffffff;fill-opacity:1;fill-rule:evenodd;stroke:none"
             id="path3450"
             inkscape:connector-curvature="0" /></g><g
           id="g3452"
           transform="translate(391.8311,33.9619)"><path
             d="m 0,0 c -0.83,-0.501 -1.511,-1.206 -2.08,-1.984 -0.166,0.309 -0.217,0.676 -0.434,0.952 -0.123,0.166 -0.345,0.098 -0.518,0.1 -0.22,-0.022 -0.433,0.036 -0.641,0.1 0.242,0.342 0.179,0.865 -0.194,1.088 -0.396,0.286 -1.011,0.038 -1.116,-0.436 -0.167,-0.516 0.385,-1.036 0.892,-0.9 0.269,-0.4 0.756,-0.334 1.172,-0.35 0.186,-0.322 0.329,-0.678 0.567,-0.971 -0.445,-0.877 -0.696,-1.859 -0.715,-2.843 0.571,-0.237 1.14,-0.484 1.715,-0.721 0.028,0.624 0.099,1.239 0.194,1.847 0.191,1.334 0.963,2.493 1.877,3.447 C 0.49,-0.432 0.238,-0.225 0,0"
             style="fill:#ffffff;fill-opacity:1;fill-rule:evenodd;stroke:none"
             id="path3454"
             inkscape:connector-curvature="0" /></g><g
           id="g3456"
           transform="translate(405.1797,23.916)"><path
             d="m 0,0 c -2.105,-0.459 -4.275,-0.594 -6.427,-0.5 -1.454,0.074 -2.908,0.209 -4.331,0.523 -1.006,0.205 -1.992,0.497 -2.984,0.781 0.159,-1.266 0.67,-2.477 1.401,-3.521 0.862,-1.213 2.015,-2.325 3.45,-2.774 1.05,-0.281 2.291,-0.639 4.336,-0.649 l 0.207,0 0.213,0.003 c 1.903,0.033 3.773,0.275 5.442,0.986 1.076,0.462 2.086,1.093 2.954,1.882 0.747,0.707 1.335,1.587 1.741,2.533 0.392,0.892 0.744,2.5 0.706,3.32 C 4.648,1.413 2.346,0.394 0,0"
             style="fill:#ffffff;fill-opacity:1;fill-rule:evenodd;stroke:none"
             id="path3458"
             inkscape:connector-curvature="0" /></g><g
           id="g3460"
           transform="translate(166.9146,713.3257)"><path
             d="m 0,0 c 44.43,-3.687 79.34,-40.91 79.34,-86.292 0,-47.827 -38.77,-86.597 -86.597,-86.597 -47.827,0 -86.597,38.77 -86.597,86.597 0,43.721 32.402,79.868 74.502,85.752 l 0,11.004 c 0,3.725 3.049,6.773 6.774,6.773 l 5.805,0 C -3.048,17.237 0,14.189 0,10.464 L 0,0 Z"
             style="fill:#30617d;fill-opacity:1;fill-rule:evenodd;stroke:none"
             id="path3462"
             inkscape:connector-curvature="0" /></g><g
           id="g3464"
           transform="translate(25.9536,408.7046)" /><g
           id="g3468"
           transform="translate(625.2197,186.6777)"><path
             d="m 0,0 c -7.208,1.279 -35.226,15.122 -55.822,21.037 -20.616,5.921 -52.235,9.566 -57.949,8.918 -6.833,-0.774 -7.124,-1.261 -8.388,-6.086 -1.264,-4.824 -1.303,-9.176 2.237,-11.2 4.524,-2.586 3.696,-8.497 3.283,-25.241 -3.555,-6.941 -5.45,-14.196 -6.364,-18.762 -1.758,-8.775 5.821,-14.14 10.786,-6.316 4.758,-8.178 14.141,-15.058 31.964,-20.05 31.349,-8.78 46.125,9.58 50.893,15.494 8.502,10.545 9.865,27.157 25.943,23.936 16.078,-3.22 11.283,-18.845 15.067,-31.851 2.122,-7.294 8.344,-30.159 40.657,-34.128 18.416,-2.263 29.735,0.492 37.276,6.235 1.541,-9.195 10.634,-7.173 12.395,1.619 0.92,4.597 1.975,12.088 1.34,19.918 6.022,15.507 7.542,21.249 12.697,21.892 4.048,0.505 5.688,4.535 6.379,9.475 0.691,4.94 0.61,5.501 -5.398,8.846 C 111.972,-13.465 81.39,-4.651 60.082,-2.176 41.033,0.036 16.96,-3.009 0,0"
             style="fill:#30617d;fill-opacity:1;fill-rule:evenodd;stroke:none"
             id="path3470"
             inkscape:connector-curvature="0" /></g><g
           id="g3472"
           transform="translate(501.1836,222.5654)"><path
             d="m 0,0 c 40.428,-7.202 179.819,-47.273 200.563,-56.588 20.745,-9.314 17.797,-36.569 15.611,-47.487 -2.187,-10.917 -15.682,-11.401 -11.982,7.075 3.701,18.476 4.096,28.808 -8.558,32.523 C 182.979,-60.762 10.942,-16.44 -1.067,-13.691 -13.077,-10.942 -7.951,2.112 0,0"
             style="fill:#254659;fill-opacity:1;fill-rule:evenodd;stroke:none"
             id="path3474"
             inkscape:connector-curvature="0" /></g><g
           id="g3476"
           transform="translate(731.958,176.3457)"><path
             d="m 0,0 c -40.083,8.923 -184.155,25.624 -206.886,25.017 -22.731,-0.608 -30.509,-26.895 -32.695,-37.813 -2.187,-10.917 10.082,-16.56 13.782,1.915 3.7,18.476 7.315,28.163 20.424,26.719 C -192.267,14.394 -16.43,-10.958 -4.287,-13.047 7.854,-15.136 8.151,-1.113 0,0"
             style="fill:#254659;fill-opacity:1;fill-rule:evenodd;stroke:none"
             id="path3478"
             inkscape:connector-curvature="0" /></g><g
           id="g3480"
           transform="translate(549.0771,218.5566)"><path
             d="m 0,0 c -19.504,4.334 -42.658,6.828 -47.469,6.283 -6.833,-0.774 -7.123,-1.262 -8.386,-6.086 -1.266,-4.824 -1.303,-9.176 2.237,-11.2 4.823,-2.758 3.562,-9.297 3.208,-28.719 -0.322,-17.689 4.511,-32.701 36.46,-41.65 5.076,-1.422 9.716,-2.129 13.95,-2.295 l 0,4.916 c -16.794,0.727 -38.101,10.239 -42.604,24.323 3.448131,8.722282 139.05318,-79.14456 10.583,51.345 4.614,1.608 17.831,0.768 32.021,-2.255 z M 66.303,-23.672 C 59.095,-22.393 31.077,-8.55 10.481,-2.635 7.215,-1.696 3.672,-0.815 0,0 L 0,-5.338 C 18.363,-9.248 38.356,-16.813 43.442,-27.456 51.02,-43.311 27.635,-73.573 10.346,-77.875 7.282,-78.638 3.753,-78.913 0,-78.751 l 0,-4.916 c 21.918,-0.862 32.946,12.832 36.942,17.788 8.502,10.546 9.865,27.158 25.944,23.938 16.078,-3.22 11.283,-18.846 15.067,-31.853 2.123,-7.293 8.344,-30.158 40.655,-34.127 2.205,-0.271 4.306,-0.468 6.313,-0.599 l 0,4.841 c -10.498,0.5 -20.936,3.545 -27.388,8.341 -14.299,10.629 -24.224,47.564 -11.126,59.277 7.22,6.457 22.914,7.125 38.514,5.243 l 0,5.128 c -18.806,1.903 -42.089,-0.915 -58.618,2.018 m 58.618,-84.848 c 27.972,-1.818 37.298,9.647 43.376,24.995 7.152,18.06 8.507,24.581 14.02,25.267 4.047,0.506 5.688,4.536 6.379,9.476 0.691,4.939 0.612,5.501 -5.396,8.846 -5.026,2.799 -35.608,11.613 -56.915,14.087 -0.485,0.057 -0.973,0.109 -1.464,0.159 l 0,-5.128 c 18.082,-2.183 36.035,-7.796 40.516,-11.812 9.388,-8.416 1.283,-38.183 -10.008,-51.46 -6.27,-7.372 -18.43,-10.164 -30.508,-9.589 z"
             style="fill:#000000;fill-opacity:1;fill-rule:evenodd;stroke:none"
             id="path3482"
             inkscape:connector-curvature="0"
             sodipodi:nodetypes="csccccccccccccccccccccccccscccccscccccccccc" /></g><g
           id="g3484"
           transform="translate(714.5137,175.9268)"><path
             d="m 0,0 c -8.347,7.481 -63.442,20.509 -79.029,6.569 -13.099,-11.714 -3.173,-48.648 11.126,-59.277 13.875,-10.313 46.174,-12.533 57.895,1.248 C 1.283,-38.184 9.389,-8.416 0,0 m -197.457,39.547 c 10.583,3.69 66.446,-5.506 75.463,-24.373 7.577,-15.855 -15.808,-46.117 -33.097,-50.419 -16.776,-4.176 -47.44,6.216 -52.949,23.447 -5.307,16.601 -1.323,47.194 10.583,51.345"
             style="fill:#b0cad9;fill-opacity:1;fill-rule:evenodd;stroke:none"
             id="path3486"
             inkscape:connector-curvature="0" /></g><g
           id="g3488"
           transform="translate(522.7402,216.252)"><path
             d="m 0,0 c 17.756,0.539 61.855,-8.57 69.779,-25.151 5.315,-11.12 -4.602,-29.327 -16.964,-40.694 L 0,0 Z"
             style="fill:#d1e2eb;fill-opacity:1;fill-rule:evenodd;stroke:none"
             id="path3490"
             inkscape:connector-curvature="0" /></g><g
           id="g3492"
           transform="translate(645.665,187.249)"><path
             d="m 0,0 53.795,-67.064 c 1.933,1.206 3.639,2.627 5.046,4.282 11.291,13.276 19.396,43.044 10.008,51.46 C 61.84,-5.04 21.861,5.152 0,0"
             style="fill:#d1e2eb;fill-opacity:1;fill-rule:evenodd;stroke:none"
             id="path3494"
             inkscape:connector-curvature="0" /></g><g
           id="g3496"
           transform="translate(530.8398,215.9805)"><path
             d="m 0,0 c 13.784,-3.384 29.992,-7.635 46.878,-12.241 4.44,-2.238 8.264,-4.759 11.061,-7.547 l 10e-4,0 0.076,-0.075 0.009,-0.011 c 0.122,-0.122 0.243,-0.246 0.36,-0.37 l 0.044,-0.045 0.029,-0.03 0.071,-0.077 0.072,-0.077 0.023,-0.025 0.048,-0.051 0.07,-0.077 0.07,-0.077 0.004,-0.005 0.065,-0.071 0.068,-0.077 0.055,-0.063 0.015,-0.016 0.067,-0.077 0.066,-0.077 0.036,-0.042 0.031,-0.036 0.066,-0.078 0.066,-0.078 0.017,-0.021 0.048,-0.057 0.064,-0.078 0.065,-0.078 -0.001,-0.001 0.064,-0.078 0.063,-0.079 0.046,-0.057 0.016,-0.022 0.062,-0.078 0.061,-0.079 0.06,-0.079 0.061,-0.079 0.06,-0.079 0.011,-0.016 0.047,-0.065 0.058,-0.079 0.055,-0.074 0.004,-0.006 0.058,-0.08 0.056,-0.08 0.037,-0.053 0.02,-0.027 0.055,-0.08 0.055,-0.08 0.022,-0.032 0.033,-0.049 0.053,-0.08 0.053,-0.081 0.008,-0.011 0.045,-0.069 0.053,-0.082 0.045,-0.071 0.007,-0.01 0.05,-0.082 0.051,-0.081 0.03,-0.048 0.02,-0.034 0.049,-0.081 0.049,-0.082 0.016,-0.027 0.031,-0.055 0.048,-0.083 0.047,-0.081 0.004,-0.006 0.043,-0.077 0.045,-0.082 0.037,-0.066 0.009,-0.017 0.044,-0.082 0.067,-0.127 0.021,-0.039 0.085,-0.166 0.01,-0.022 0.031,-0.062 0.081,-0.167 0.042,-0.087 0.012,-0.029 0.029,-0.06 0.025,-0.056 0.015,-0.033 0.038,-0.084 0.002,-0.004 0.039,-0.089 0.011,-0.025 0.028,-0.065 0.022,-0.053 0.015,-0.037 0.034,-0.082 0.003,-0.008 0.037,-0.09 0.008,-0.021 0.028,-0.069 0.07,-0.182 0.034,-0.091 0.007,-0.018 0.026,-0.075 c 0.778,-2.153 1.053,-4.532 0.901,-7.05 -33.991,4.853 -62.389,8.842 -67.363,9.391 -13.108,1.444 -16.723,-8.242 -20.424,-26.719 l -0.035,-0.165 c -2.094,7.389 -2.484,17.179 -1.278,26.183 4.862,5.556 11.422,9.644 20.226,9.88 1.326,0.035 3.063,0.012 5.168,-0.066 -8.656,2.207 -15.957,4.06 -21.272,5.396 2.059,4.401 4.764,7.622 8.089,8.781 C -11.294,0.36 -6.299,0.516 0,0 m 171.167,-34.283 c -14.038,2.186 -30.65,4.508 -48.019,6.76 -4.947,-0.357 -9.434,-1.208 -13.083,-2.7 l -0.099,-0.04 -0.028,-0.011 -0.07,-0.031 -0.097,-0.04 -0.099,-0.042 -0.097,-0.042 -0.096,-0.042 -0.072,-0.032 -0.025,-0.012 -0.191,-0.085 -0.045,-0.02 -0.05,-0.024 -0.094,-0.044 -0.095,-0.043 -0.017,-0.008 -0.077,-0.037 -0.092,-0.045 -0.086,-0.04 -0.008,-0.004 -0.092,-0.046 -0.093,-0.046 -0.059,-0.029 -0.031,-0.017 -0.092,-0.047 -0.091,-0.046 -0.033,-0.017 -0.057,-0.031 -0.09,-0.046 -0.022,-0.013 -0.146,-0.077 -0.009,-0.006 -0.089,-0.049 -0.074,-0.039 -0.014,-0.009 -0.088,-0.05 -0.087,-0.048 -0.048,-0.028 -0.039,-0.022 -0.086,-0.05 -0.086,-0.051 -0.085,-0.051 -0.085,-0.05 -0.084,-0.052 -0.084,-0.051 -0.083,-0.053 -0.083,-0.051 -0.082,-0.053 -0.082,-0.054 -0.038,-0.023 -0.044,-0.031 -0.081,-0.052 -0.08,-0.055 -0.015,-0.01 -0.065,-0.045 -0.137,-0.093 -0.014,-0.011 -0.008,-0.005 -0.014,-0.01 -0.142,-0.101 -0.05,-0.036 -0.028,-0.02 -0.077,-0.057 -0.077,-0.056 -0.027,-0.021 -0.049,-0.037 -0.075,-0.058 -0.075,-0.057 -0.007,-0.005 -0.068,-0.054 -0.074,-0.057 -0.06,-0.049 -0.013,-0.011 -0.004,-0.003 -0.142,-0.115 -0.04,-0.033 -0.032,-0.028 -0.143,-0.12 -0.019,-0.017 -0.19,-0.167 -0.073,-0.066 -0.023,-0.02 -0.049,-0.046 -0.045,-0.042 -0.026,-0.024 -0.068,-0.063 -0.004,-0.003 -0.07,-0.068 -0.019,-0.018 -0.051,-0.05 -0.04,-0.04 -0.029,-0.027 -0.063,-0.063 -0.006,-0.007 -0.069,-0.069 -0.016,-0.015 -0.052,-0.055 -0.037,-0.037 -0.031,-0.032 -0.058,-0.061 -0.008,-0.011 -0.068,-0.071 c -1.582,-1.699 -2.771,-3.815 -3.611,-6.228 33.267,-8.618 61.045,-15.881 65.849,-17.292 12.654,-3.715 12.258,-14.047 8.558,-32.523 l -0.007,-0.041 c 4.757,6.033 8.865,14.906 11.2,23.658 -2.358,6.954 -6.831,13.206 -14.823,16.795 -1.208,0.543 -2.82,1.19 -4.792,1.929 8.802,-1.291 16.229,-2.39 21.643,-3.203 -0.205,4.856 -1.461,8.873 -4.083,11.223 -1.961,1.758 -6.504,3.822 -12.507,5.771"
             style="fill:#617f91;fill-opacity:1;fill-rule:evenodd;stroke:none"
             id="path3498"
             inkscape:connector-curvature="0" /></g><g
           id="g3500"
           transform="translate(522.7393,216.2529)"><path
             d="m 0,0 21.166,-26.388 c 12.474,-1.73 30.315,-4.257 50.041,-7.073 0.151,2.519 -0.123,4.898 -0.901,7.051 l -0.027,0.074 -0.007,0.019 -0.034,0.09 -0.069,0.182 -0.028,0.069 -0.008,0.022 -0.037,0.09 -0.003,0.008 -0.034,0.082 -0.015,0.037 -0.023,0.052 -0.028,0.066 -0.011,0.024 -0.039,0.089 -0.002,0.004 -0.038,0.085 -0.014,0.032 -0.026,0.057 -0.028,0.059 -0.013,0.03 -0.042,0.087 -0.081,0.167 -0.03,0.061 -0.011,0.023 -0.085,0.166 -0.02,0.039 -0.068,0.127 -0.044,0.082 -0.008,0.016 -0.037,0.067 -0.045,0.082 -0.043,0.077 -0.004,0.006 -0.047,0.081 -0.048,0.083 -0.031,0.054 -0.017,0.028 -0.049,0.082 -0.049,0.081 -0.019,0.033 -0.03,0.049 -0.051,0.081 -0.051,0.081 -0.007,0.011 -0.045,0.07 -0.052,0.082 -0.045,0.069 -0.008,0.011 -0.054,0.081 -0.053,0.08 -0.033,0.049 -0.021,0.032 -0.056,0.08 -0.055,0.081 -0.019,0.027 -0.037,0.053 -0.057,0.08 -0.057,0.08 -0.004,0.006 -0.055,0.074 -0.059,0.079 -0.047,0.064 -0.01,0.016 -0.061,0.079 -0.06,0.079 -0.06,0.079 -0.061,0.079 -0.062,0.079 -0.017,0.021 -0.046,0.058 -0.062,0.079 -0.064,0.078 0.001,10e-4 -0.065,0.077 -0.064,0.078 -0.048,0.058 -0.018,0.02 -0.065,0.078 -0.067,0.079 -0.03,0.036 -0.036,0.042 -0.066,0.077 -0.068,0.077 -0.015,0.016 -0.054,0.062 -0.069,0.077 -0.064,0.072 -0.005,0.004 -0.069,0.078 -0.071,0.077 -0.047,0.05 -0.024,0.026 -0.071,0.076 -0.071,0.077 -0.03,0.03 -0.044,0.045 c -0.117,0.124 -0.237,0.248 -0.359,0.371 l -0.01,0.01 -0.075,0.075 -10e-4,0 c -2.798,2.789 -6.621,5.309 -11.061,7.547 C 38.093,-7.907 21.885,-3.656 8.101,-0.272 5.048,-0.022 2.303,0.069 0,0"
             style="fill:#8097a6;fill-opacity:1;fill-rule:evenodd;stroke:none"
             id="path3502"
             inkscape:connector-curvature="0" /></g><g
           id="g3504"
           transform="translate(702.0068,181.6973)"><path
             d="m 0,0 c -14.038,2.187 -30.65,4.508 -48.019,6.76 -2.966,-0.213 -5.769,-0.606 -8.324,-1.207 l 15.898,-19.819 c 18.544,-4.836 32.042,-8.399 35.256,-9.342 12.654,-3.716 12.258,-14.048 8.558,-32.524 l -0.007,-0.041 c 4.757,6.033 8.865,14.906 11.201,23.658 -2.359,6.954 -6.832,13.206 -14.824,16.795 -1.208,0.543 -2.82,1.19 -4.792,1.929 8.802,-1.291 16.229,-2.39 21.643,-3.203 -0.205,4.856 -1.461,8.873 -4.083,11.223 C 10.546,-4.013 6.003,-1.949 0,0"
             style="fill:#8097a6;fill-opacity:1;fill-rule:evenodd;stroke:none"
             id="path3506"
             inkscape:connector-curvature="0" /></g><g
           id="g3508"
           transform="translate(149.8179,548.6426)"><path
             d="m 0,0 c 47.696,0 86.597,38.901 86.597,86.598 0,47.696 -38.901,86.597 -86.597,86.597 -47.696,0 -86.598,-38.901 -86.598,-86.597 C -86.598,38.901 -47.696,0 0,0"
             style="fill:#ffffff;fill-opacity:1;fill-rule:evenodd;stroke:none"
             id="path3510"
             inkscape:connector-curvature="0" /></g><g
           id="g3512"
           transform="translate(149.8179,553.9648)"><path
             d="m 0,0 c 44.765,0 81.275,36.51 81.275,81.275 0,44.765 -36.51,81.276 -81.275,81.276 -44.765,0 -81.275,-36.511 -81.275,-81.276 C -81.275,36.51 -44.765,0 0,0"
             style="fill:#e6e6e6;fill-opacity:1;fill-rule:evenodd;stroke:none"
             id="path3514"
             inkscape:connector-curvature="0" /></g><g
           id="g3516"
           transform="translate(144.4961,738.7695)"><path
             d="m 0,0 5.805,0 c 3.726,0 6.774,-3.048 6.774,-6.773 l 0,-42.573 c 0,-3.725 -3.048,-6.773 -6.774,-6.773 l -5.805,0 c -3.725,0 -6.773,3.048 -6.773,6.773 l 0,42.573 C -6.773,-3.048 -3.725,0 0,0"
             style="fill:#ffffff;fill-opacity:1;fill-rule:evenodd;stroke:none"
             id="path3518"
             inkscape:connector-curvature="0" /></g><g
           id="g3520"
           transform="translate(145.5547,735.3936)"><path
             d="M 0,0 3.688,0 C 6.054,0 7.99,-1.936 7.99,-4.302 l 0,-39.966 c 0,-2.366 -1.936,-4.302 -4.302,-4.302 l -3.688,0 c -2.366,0 -4.302,1.936 -4.302,4.302 l 0,39.966 C -4.302,-1.936 -2.366,0 0,0"
             style="fill:#e6e6e6;fill-opacity:1;fill-rule:evenodd;stroke:none"
             id="path3522"
             inkscape:connector-curvature="0" /></g><g
           id="g3524"
           transform="translate(149.8179,567.0269)"><path
             d="m 0,0 c 37.571,0 68.213,30.643 68.213,68.213 0,37.571 -30.642,68.213 -68.213,68.213 -37.571,0 -68.213,-30.642 -68.213,-68.213 C -68.213,30.643 -37.571,0 0,0"
             style="fill:#ffffff;fill-opacity:1;fill-rule:evenodd;stroke:none"
             id="path3526"
             inkscape:connector-curvature="0" /></g><g
           id="g3528"
           transform="translate(149.8179,573.7998)"><path
             d="m 0,0 c 33.84,0 61.44,27.6 61.44,61.44 0,33.84 -27.6,61.44 -61.44,61.44 -33.84,0 -61.44,-27.6 -61.44,-61.44 C -61.44,27.6 -33.84,0 0,0"
             style="fill:#b3b3b3;fill-opacity:1;fill-rule:evenodd;stroke:none"
             id="path3530"
             inkscape:connector-curvature="0" /></g><g
           id="g3532"
           transform="translate(149.8179,582.9922)"><path
             d="m 0,0 c 28.777,0 52.248,23.471 52.248,52.248 0,28.777 -23.471,52.248 -52.248,52.248 -28.777,0 -52.248,-23.471 -52.248,-52.248 C -52.248,23.471 -28.777,0 0,0"
             style="fill:#886734;fill-opacity:1;fill-rule:evenodd;stroke:none"
             id="path3534"
             inkscape:connector-curvature="0" /></g><g
           id="g3536"
           transform="translate(149.8174,597.5054)"><path
             d="M 0,0 C 20.784,0 37.735,16.951 37.735,37.735 37.735,58.518 20.784,75.469 0,75.469 -20.784,75.469 -37.735,58.518 -37.735,37.735 -37.735,16.951 -20.784,0 0,0"
             style="fill:#694f28;fill-opacity:1;fill-rule:evenodd;stroke:none"
             id="path3538"
             inkscape:connector-curvature="0" /></g><g
           id="g3540"
           transform="translate(186.2783,664.0093)"><path
             d="m 0,0 c 6.25,-7.911 9.982,-17.903 9.982,-28.769 0,-25.65 -20.793,-46.443 -46.442,-46.443 -10.865,0 -20.858,3.732 -28.769,9.982 7.378,-4.783 16.176,-7.563 25.625,-7.563 26.049,0 47.167,21.118 47.167,47.169 C 7.563,-16.176 4.783,-7.378 0,0"
             style="fill:#bd9d6e;fill-opacity:1;fill-rule:evenodd;stroke:none"
             id="path3542"
             inkscape:connector-curvature="0" /></g><g
           id="g3544"
           transform="translate(603.7793,431.4604)"><path
             d="m 0,0 46.414,-23.576 c 8.803,-4.471 12.347,-15.332 7.875,-24.134 L -9.122,-172.547 c -4.471,-8.803 -15.331,-12.347 -24.134,-7.875 l -46.414,23.575 c -8.803,4.472 -12.347,15.332 -7.875,24.135 L -24.134,-7.875 C -19.662,0.927 -8.802,4.471 0,0"
             style="fill:#30617d;fill-opacity:1;fill-rule:evenodd;stroke:none"
             id="path3546"
             inkscape:connector-curvature="0" /></g><g
           id="g3548"
           transform="translate(593.9395,439.667)"><path
             d="m 0,0 46.414,-23.576 c 8.803,-4.471 12.347,-15.332 7.875,-24.134 L -9.122,-172.547 c -4.472,-8.803 -15.332,-12.347 -24.135,-7.876 l -46.413,23.576 c -8.803,4.472 -12.347,15.332 -7.875,24.135 l 63.41,124.837 C -19.663,0.928 -8.803,4.471 0,0"
             style="fill:#ffffff;fill-opacity:1;fill-rule:evenodd;stroke:none"
             id="path3550"
             inkscape:connector-curvature="0" /></g><g
           id="g3552"
           transform="translate(575.3623,428.4932)"><path
             d="M 0,0 66.989,-34.027 6.706,-152.708 -60.284,-118.681 0,0 Z"
             style="fill:#000000;fill-opacity:1;fill-rule:evenodd;stroke:none"
             id="path3554"
             inkscape:connector-curvature="0" /></g><g
           id="g3556"
           transform="translate(597.7109,426.853)"><path
             d="m 0,0 30.135,-15.307 c 0.819,-0.416 1.829,-0.087 2.245,0.732 0.416,0.819 0.086,1.829 -0.733,2.245 L 1.512,2.977 C 0.693,3.393 -0.316,3.063 -0.732,2.245 l 0,-10e-4 C -1.148,1.426 -0.818,0.416 0,0"
             style="fill:#b3b3b3;fill-opacity:1;fill-rule:evenodd;stroke:none"
             id="path3558"
             inkscape:connector-curvature="0" /></g><g
           id="g3560"
           transform="translate(575.3623,428.4932)"><path
             d="M 0,0 6.706,-152.708 66.989,-34.027 0,0 Z"
             style="fill:#4d4d4d;fill-opacity:1;fill-rule:evenodd;stroke:none"
             id="path3562"
             inkscape:connector-curvature="0" /></g><g
           id="g3564"
           transform="translate(516.3896,292.3086)"><path
             d="m 0,0 50.771,-25.789 c 1.268,-0.645 2.833,-0.134 3.478,1.135 l 0,0.001 c 0.645,1.268 0.134,2.835 -1.135,3.478 L 2.344,4.614 C 1.074,5.259 -0.49,4.748 -1.136,3.479 l 0,0 C -1.78,2.21 -1.27,0.645 0,0"
             style="fill:#b3b3b3;fill-opacity:1;fill-rule:evenodd;stroke:none"
             id="path3566"
             inkscape:connector-curvature="0" /></g><g
           id="g3568"
           transform="translate(547.502,290.7705)"><path
             d="M 0,0 C 4.988,-2.534 6.979,-8.633 4.444,-13.621 1.91,-18.61 -4.188,-20.6 -9.177,-18.066 c -4.988,2.534 -6.978,8.632 -4.444,13.621 C -11.087,0.544 -4.989,2.534 0,0"
             style="fill:#ffffff;fill-opacity:1;fill-rule:evenodd;stroke:none"
             id="path3570"
             inkscape:connector-curvature="0" /></g><g
           id="g3572"
           transform="translate(546.1475,288.1035)"><path
             d="m 0,0 c 3.516,-1.786 4.918,-6.084 3.132,-9.6 -1.785,-3.516 -6.084,-4.919 -9.6,-3.132 -3.515,1.786 -4.918,6.084 -3.133,9.599 C -7.814,0.384 -3.517,1.786 0,0"
             style="fill:#b3b3b3;fill-opacity:1;fill-rule:evenodd;stroke:none"
             id="path3574"
             inkscape:connector-curvature="0" /></g><g
           id="g3576"
           transform="translate(16.0469,416.9668)" /><g
           id="g3580"
           transform="translate(103.9111,409.2959)" /><g
           id="g3584"
           transform="translate(67.7031,371.6514)" /><g
           id="g3588"
           transform="translate(73.2446,360.0342)" /><g
           id="g3592"
           transform="translate(78.7861,348.418)" /><g
           id="g3596"
           transform="translate(84.3276,336.8008)" /><g
           id="g3600"
           transform="translate(89.8691,325.1836)" /><g
           id="g3604"
           transform="translate(95.4106,313.5664)" /><g
           id="g3608"
           transform="translate(100.9526,301.9502)" /><g
           id="g3612"
           transform="translate(106.4941,290.333)" /><g
           id="g3616"
           transform="translate(112.0356,278.7158)" /><g
           id="g3620"
           transform="translate(318.6797,333.082)" /><g
           id="g3624"
           transform="translate(327.8555,273.8672)" /><g
           id="g3628"
           transform="translate(313.1411,280)" /><g
           id="g3632"
           transform="translate(304.1411,318.7822)" /><g
           id="g3636"
           transform="translate(318.6797,333.082)" /><g
           id="g3640"
           transform="translate(158.4365,181.4434)" /><g
           id="g3644"
           transform="translate(125.3447,250.8145)" /><g
           id="g3648"
           transform="translate(164.4492,237.3584)" /><g
           id="g3652"
           transform="translate(198.0571,235.4258)" /><g
           id="g3656"
           transform="translate(218.2915,261.5283)" /><g
           id="g3660"
           transform="translate(250.624,262.2695)" /><g
           id="g3664"
           transform="translate(321.4678,259.2129)" /><g
           id="g3668"
           transform="translate(338.4712,267.3242)" /><g
           id="g3672"
           transform="translate(165.022,167.6377)" /><g
           id="g3676"
           transform="translate(170.5635,156.0215)" /><g
           id="g3680"
           transform="translate(176.105,144.4043)" /><g
           id="g3684"
           transform="translate(181.6465,132.7871)" /><g
           id="g3688"
           transform="translate(187.1885,121.1699)" /><g
           id="g3692"
           transform="translate(192.73,109.5537)" /><g
           id="g3696"
           transform="translate(198.2715,97.9365)" /><g
           id="g3700"
           transform="translate(203.813,86.3193)" /><g
           id="g3704"
           transform="translate(282.8105,223.8262)" /><g
           id="g3708"
           transform="translate(288.3521,212.209)" /><g
           id="g3712"
           transform="translate(293.8936,200.5918)" /><g
           id="g3716"
           transform="translate(299.4351,188.9746)" /><g
           id="g3720"
           transform="translate(304.9766,177.3584)" /><g
           id="g3724"
           transform="translate(310.5186,165.7412)" /><g
           id="g3728"
           transform="translate(316.0601,154.124)" /><g
           id="g3732"
           transform="translate(321.6011,142.5068)" /><g
           id="g3736"
           transform="translate(799.9199,402.6978)" /><g
           id="g3740"
           transform="translate(799.9199,411.4448)" /><g
           id="g3744"
           transform="translate(799.9199,714.2109)"><path
             d="M 0,0 C -0.672,1.199 -0.838,2.674 -0.327,4.057 L 0,4.944 0,0 Z"
             style="fill:#cccccc;fill-opacity:1;fill-rule:evenodd;stroke:none"
             id="path3746"
             inkscape:connector-curvature="0" /></g><g
           id="g3748"
           transform="translate(786.4434,678.9443)" /><g
           id="g3752"
           transform="translate(799.9199,611.0078)" /><g
           id="g3756"
           transform="translate(794.959,607.8281)" /><g
           id="g3760"
           transform="translate(791.6543,772.1758)" /><g
           id="g3764"
           transform="translate(763.6738,782.5005)" /><g
           id="g3768"
           transform="translate(735.6934,792.8247)" /><g
           id="g3772"
           transform="translate(716.4658,799.9199)" /><g
           id="g3776"
           transform="translate(695.2764,799.9199)" /><g
           id="g3780"
           transform="translate(663.2129,799.9199)"><path
             d="M 0,0 C -0.987,-1.106 -2.593,-1.562 -4.063,-1.019 L -6.826,0 0,0 Z"
             style="fill:#cccccc;fill-opacity:1;fill-rule:evenodd;stroke:none"
             id="path3782"
             inkscape:connector-curvature="0" /></g><g
           id="g3784"
           transform="translate(781.6895,748.6729)" /><g
           id="g3788"
           transform="translate(751.3311,759.8745)" /><g
           id="g3792"
           transform="translate(720.9736,771.0762)" /><g
           id="g3796"
           transform="translate(690.6162,782.2778)" /><g
           id="g3800"
           transform="translate(660.2588,793.4795)" /><g
           id="g3804"
           transform="translate(642.8047,799.9199)" /><g
           id="g3808"
           transform="translate(615.4912,799.9199)" /><g
           id="g3812"
           transform="translate(581.001,799.9199)" /><g
           id="g3816"
           transform="translate(433.6895,799.9199)" /><g
           id="g3820"
           transform="translate(383.5859,793.6079)" /><g
           id="g3824"
           transform="translate(372.5474,763.6943)" /><g
           id="g3828"
           transform="translate(494.8389,799.9199)" /><g
           id="g3832"
           transform="translate(529.9775,799.9199)" /><g
           id="g3836"
           transform="translate(550.6973,799.9199)" /><g
           id="g3840"
           transform="translate(573.7305,791.4214)" /><g
           id="g3844"
           transform="translate(604.6572,780.0093)" /><g
           id="g3848"
           transform="translate(635.585,768.5972)" /><g
           id="g3852"
           transform="translate(666.5117,757.1855)" /><g
           id="g3856"
           transform="translate(697.4395,745.7734)" /><g
           id="g3860"
           transform="translate(728.3672,734.3613)" /><g
           id="g3864"
           transform="translate(759.2939,722.9497)" /><g
           id="g3868"
           transform="translate(790.2217,711.5376)" /><g
           id="g3872"
           transform="translate(458.5869,799.9199)" /><g
           id="g3876"
           transform="translate(478.5137,792.5674)" /><g
           id="g3880"
           transform="translate(509.4404,781.1553)" /><g
           id="g3884"
           transform="translate(540.3682,769.7437)" /><g
           id="g3888"
           transform="translate(571.2959,758.3315)" /><g
           id="g3892"
           transform="translate(602.2227,746.9194)" /><g
           id="g3896"
           transform="translate(633.1504,735.5073)" /><g
           id="g3900"
           transform="translate(664.0771,724.0957)" /><g
           id="g3904"
           transform="translate(695.0049,712.6836)" /><g
           id="g3908"
           transform="translate(725.9326,701.272)" /><g
           id="g3912"
           transform="translate(756.8594,689.8599)" /><g
           id="g3916"
           transform="translate(452.7402,768.0908)" /><g
           id="g3920"
           transform="translate(483.667,756.6787)" /><g
           id="g3924"
           transform="translate(514.5947,745.2666)" /><g
           id="g3928"
           transform="translate(545.5225,733.855)" /><g
           id="g3932"
           transform="translate(576.4492,722.4429)" /><g
           id="g3936"
           transform="translate(607.377,711.0308)" /><g
           id="g3940"
           transform="translate(638.3047,699.6191)" /><g
           id="g3944"
           transform="translate(669.2314,688.207)" /><g
           id="g3948"
           transform="translate(700.1592,676.7949)" /><g
           id="g3952"
           transform="translate(731.0859,665.3833)" /><g
           id="g3956"
           transform="translate(762.0928,653.9419)" /><g
           id="g3960"
           transform="translate(410.2715,749.7744)" /><g
           id="g3964"
           transform="translate(441.1982,738.3628)" /><g
           id="g3968"
           transform="translate(472.126,726.9507)" /><g
           id="g3972"
           transform="translate(503.0537,715.5386)" /><g
           id="g3976"
           transform="translate(533.9805,704.1265)" /><g
           id="g3980"
           transform="translate(564.9082,692.7148)" /><g
           id="g3984"
           transform="translate(595.835,681.3027)" /><g
           id="g3988"
           transform="translate(626.7627,669.8906)" /><g
           id="g3992"
           transform="translate(657.6904,658.4785)" /><g
           id="g3996"
           transform="translate(688.6172,647.0669)" /><g
           id="g4000"
           transform="translate(719.624,635.626)" /><g
           id="g4004"
           transform="translate(765.1523,618.8262)" /><g
           id="g4008"
           transform="translate(506.1094,661.0586)" /><g
           id="g4012"
           transform="translate(468.6445,570.4023)" /><g
           id="g4016"
           transform="translate(556.4893,537.9883)" /><g
           id="g4020"
           transform="translate(460.1094,296.7979)"><path
             d="m 0,0 -1.688,-25.312 -17.544,18.323 -59.64,164.097 0.001,0.001 -2.23,6.134 -2.807,7.724 c -1.049,2.885 0.454,6.103 3.34,7.152 l 4.37,1.588 4.371,1.589 c 2.885,1.049 6.104,-0.455 7.152,-3.339 L -59.638,164.098 0,0 Z"
             style="fill:#30617d;fill-opacity:1;fill-rule:evenodd;stroke:none"
             id="path4022"
             inkscape:connector-curvature="0" /></g><g
           id="g4024"
           transform="translate(450.8838,302.3281)"><path
             d="m 0,0 -1.688,-25.312 -17.544,18.323 -64.676,177.956 c -1.049,2.885 0.454,6.103 3.339,7.152 l 8.742,3.176 c 2.885,1.049 6.103,-0.454 7.152,-3.338 L 0,0 Z"
             style="fill:#f85a68;fill-opacity:1;fill-rule:evenodd;stroke:none"
             id="path4026"
             inkscape:connector-curvature="0" /></g><g
           id="g4028"
           transform="translate(450.8838,302.3281)"><path
             d="m 0,0 -1.688,-25.313 -8.246,22.69 -66.264,182.331 4.371,1.588 c 2.885,1.049 6.103,-0.455 7.152,-3.339 L 0,0 Z"
             style="fill:#c62229;fill-opacity:1;fill-rule:evenodd;stroke:none"
             id="path4030"
             inkscape:connector-curvature="0" /></g><g
           id="g4032"
           transform="translate(450.8838,302.3281)"><path
             d="m 0,0 -1.688,-25.312 -17.544,18.323 -61.869,170.232 c 6.353,3.612 12.74,5.875 19.233,6.99 L 0,0 Z"
             style="fill:#ffffff;fill-opacity:1;fill-rule:evenodd;stroke:none"
             id="path4034"
             inkscape:connector-curvature="0" /></g><g
           id="g4036"
           transform="translate(450.8838,302.3281)"><path
             d="m 0,0 -1.688,-25.313 -8.246,22.69 -61.858,170.205 c 3.286,1.204 6.591,2.079 9.924,2.651 L 0,0 Z"
             style="fill:#d0d0d0;fill-opacity:1;fill-rule:evenodd;stroke:none"
             id="path4038"
             inkscape:connector-curvature="0" /></g><g
           id="g4040"
           transform="translate(450.8838,302.3281)"><path
             d="m 0,0 -1.688,-25.312 -17.544,18.323 -59.64,164.097 c 6.362,3.706 12.747,5.965 19.233,6.99 L 0,0 Z"
             style="fill:#f5e6b6;fill-opacity:1;fill-rule:evenodd;stroke:none"
             id="path4042"
             inkscape:connector-curvature="0" /></g><g
           id="g4044"
           transform="translate(450.8838,302.3281)"><path
             d="m 0,0 -1.688,-25.313 -8.246,22.69 -59.649,164.129 c 3.295,1.211 6.606,2.065 9.945,2.592 L 0,0 Z"
             style="fill:#ffd800;fill-opacity:1;fill-rule:evenodd;stroke:none"
             id="path4046"
             inkscape:connector-curvature="0" /></g><g
           id="g4048"
           transform="translate(450.8838,302.3281)"><path
             d="M 0,0 -1.688,-25.312 -19.232,-6.99 c 2.848,1.677 5.963,3.154 9.299,4.366 C -6.598,-1.411 -3.262,-0.543 0,0"
             style="fill:#f0b16c;fill-opacity:1;fill-rule:evenodd;stroke:none"
             id="path4050"
             inkscape:connector-curvature="0" /></g><g
           id="g4052"
           transform="translate(450.8828,302.3281)"><path
             d="m 0,0 -1.687,-25.313 -8.246,22.69 C -6.597,-1.411 -3.26,-0.543 0,0"
             style="fill:#c78b4c;fill-opacity:1;fill-rule:evenodd;stroke:none"
             id="path4054"
             inkscape:connector-curvature="0" /></g><g
           id="g4056"
           transform="translate(449.7539,285.3779)"><path
             d="m 0,0 -0.558,-8.361 -5.796,6.052 c 0.941,0.554 1.97,1.042 3.073,1.443 C -2.18,-0.466 -1.078,-0.179 0,0"
             style="fill:#1e1e1e;fill-opacity:1;fill-rule:evenodd;stroke:none"
             id="path4058"
             inkscape:connector-curvature="0" /></g></g></g></g></svg>